<svg width="657" height="737" viewBox="0 0 657 737" fill="none" xmlns="http://www.w3.org/2000/svg">
<path opacity="0.18" d="M640.24 700.937C617.515 703.566 594.789 705.801 572.064 707.774C572.321 708.327 572.628 708.855 572.983 709.351C575.348 712.901 580.208 713.558 584.28 715.268C588.353 716.977 592.031 721.841 589.403 725.259C588.09 726.969 585.725 727.495 583.624 727.758L560.11 731.702C531.473 736.435 501.26 741.168 474.2 730.781C463.034 726.443 462.246 720.001 466.056 714.61C320.639 720.921 174.566 716.056 28.8871 711.323C17.0646 711.323 3.79719 708.168 0.644531 696.204C75.6515 662.415 148.425 662.284 229.738 660.049L515.447 652.423C520.308 652.292 525.562 652.292 529.766 654.79C533.969 657.288 536.334 662.284 539.88 665.965C550.389 676.877 567.992 674.642 583.098 673.459C605.151 671.849 627.303 674.665 648.253 681.742C651.143 682.662 654.296 683.977 655.741 686.606C659.681 693.969 648.516 700.017 640.24 700.937Z" fill="#1D2741"/>
<path d="M110.199 0.0534668H337.979V703.172H110.199C99.1903 703.172 88.6321 698.795 80.8474 691.003C73.0628 683.212 68.6895 672.645 68.6895 661.626V41.599C68.6895 30.5804 73.0628 20.0132 80.8474 12.2219C88.6321 4.43057 99.1903 0.0534668 110.199 0.0534668Z" fill="#929ECC"/>
<path d="M110.199 0.0534668H337.979V703.172H110.199C99.1903 703.172 88.6321 698.795 80.8474 691.003C73.0628 683.212 68.6895 672.645 68.6895 661.626V41.599C68.6895 30.5804 73.0628 20.0132 80.8474 12.2219C88.6321 4.43057 99.1903 0.0534668 110.199 0.0534668Z" fill="url(#paint0_linear)"/>
<path d="M135.421 0.0534668H435.58C448.575 0.0534668 461.038 5.22011 470.227 14.4168C479.415 23.6135 484.578 36.0869 484.578 49.093V654.132C484.578 667.138 479.415 679.612 470.227 688.809C461.038 698.005 448.575 703.172 435.58 703.172H135.421C122.426 703.172 109.963 698.005 100.774 688.809C91.5853 679.612 86.4231 667.138 86.4231 654.132V49.093C86.4231 36.0869 91.5853 23.6135 100.774 14.4168C109.963 5.22011 122.426 0.0534668 135.421 0.0534668Z" fill="#929ECC"/>
<path d="M467.107 42.2564V627.049C467.072 633.629 464.445 639.929 459.797 644.581C455.148 649.234 448.853 651.863 442.279 651.897H128.721C122.155 651.877 115.866 649.248 111.235 644.589C106.605 639.929 104.011 633.621 104.025 627.049V42.2564C104.011 35.6847 106.605 29.3762 111.235 24.7169C115.866 20.0577 122.155 17.4289 128.721 17.408H190.724V25.1649C190.724 31.79 193.353 38.1437 198.034 42.8283C202.714 47.513 209.063 50.1448 215.682 50.1448H354.793C361.413 50.1448 367.761 47.513 372.441 42.8283C377.122 38.1437 379.752 31.79 379.752 25.1649V17.408H442.279C445.541 17.4045 448.771 18.0449 451.784 19.2924C454.798 20.5399 457.536 22.3701 459.843 24.6782C462.149 26.9863 463.977 29.7269 465.224 32.7432C466.47 35.7595 467.11 38.9923 467.107 42.2564Z" fill="white"/>
<path d="M249.573 19.5113H321.428C321.86 19.5078 322.288 19.5905 322.688 19.7544C323.088 19.9183 323.452 20.1603 323.757 20.4662C324.063 20.7721 324.305 21.1359 324.469 21.5362C324.632 21.9366 324.715 22.3656 324.712 22.7982V23.4555C324.715 23.8881 324.632 24.3171 324.469 24.7175C324.305 25.1178 324.063 25.4816 323.757 25.7875C323.452 26.0934 323.088 26.3354 322.688 26.4993C322.288 26.6632 321.86 26.7459 321.428 26.7424H249.573C249.141 26.7459 248.712 26.6632 248.312 26.4993C247.912 26.3354 247.549 26.0934 247.243 25.7875C246.938 25.4816 246.696 25.1178 246.532 24.7175C246.368 24.3171 246.286 23.8881 246.289 23.4555V22.7982C246.303 21.9307 246.653 21.1025 247.266 20.489C247.879 19.8755 248.706 19.5249 249.573 19.5113Z" fill="url(#paint1_linear)"/>
<path d="M439.915 17.408V546.062C439.901 557.948 435.177 569.343 426.78 577.747C418.382 586.152 406.997 590.88 395.121 590.894H104.025V42.2564C104.011 35.6847 106.605 29.3762 111.235 24.7169C115.866 20.0577 122.155 17.4289 128.721 17.408H190.724V25.1649C190.724 31.79 193.353 38.1437 198.034 42.8283C202.714 47.513 209.063 50.1448 215.682 50.1448H354.793C361.412 50.1448 367.761 47.513 372.441 42.8283C377.122 38.1437 379.752 31.79 379.752 25.1649V17.408H439.915Z" fill="#EBEBF0"/>
<path d="M175.617 250.51H544.215C550.59 250.513 556.702 253.049 561.21 257.56C565.717 262.072 568.251 268.189 568.254 274.569V365.417C568.251 371.797 565.717 377.915 561.21 382.426C556.702 386.937 550.59 389.473 544.215 389.477H175.617C169.243 389.473 163.13 386.937 158.623 382.426C154.115 377.915 151.581 371.797 151.578 365.417V274.569C151.581 268.189 154.115 262.072 158.623 257.56C163.13 253.049 169.243 250.513 175.617 250.51Z" fill="#929ECC"/>
<path d="M175.617 250.51H544.215C550.59 250.513 556.702 253.049 561.21 257.56C565.717 262.072 568.251 268.189 568.254 274.569V365.417C568.251 371.797 565.717 377.915 561.21 382.426C556.702 386.937 550.59 389.473 544.215 389.477H175.617C169.243 389.473 163.13 386.937 158.623 382.426C154.115 377.915 151.581 371.797 151.578 365.417V274.569C151.581 268.189 154.115 262.072 158.623 257.56C163.13 253.049 169.243 250.513 175.617 250.51Z" fill="url(#paint2_linear)"/>
<path d="M182.842 241.833H551.44C557.814 241.836 563.927 244.372 568.434 248.883C572.942 253.395 575.476 259.512 575.479 265.892V356.74C575.476 363.12 572.942 369.238 568.434 373.749C563.927 378.26 557.814 380.796 551.44 380.8H182.842C176.467 380.796 170.355 378.26 165.847 373.749C161.34 369.238 158.806 363.12 158.803 356.74V265.892C158.806 259.512 161.34 253.395 165.847 248.883C170.355 244.372 176.467 241.836 182.842 241.833Z" fill="white"/>
<path d="M203.334 87.2202H141.069V149.538H203.334V87.2202Z" fill="white"/>
<path d="M196.504 267.338H259.557C262.866 267.338 266.041 268.654 268.381 270.996C270.721 273.339 272.036 276.516 272.036 279.828V342.935C272.036 344.576 271.713 346.2 271.086 347.715C270.459 349.23 269.54 350.607 268.381 351.767C267.222 352.927 265.846 353.847 264.332 354.475C262.818 355.102 261.195 355.425 259.557 355.425H196.504C194.865 355.425 193.242 355.102 191.728 354.475C190.214 353.847 188.838 352.927 187.679 351.767C186.521 350.607 185.601 349.23 184.974 347.715C184.347 346.2 184.024 344.576 184.024 342.935V279.828C184.012 278.185 184.326 276.555 184.949 275.034C185.572 273.513 186.491 272.131 187.652 270.969C188.813 269.807 190.194 268.887 191.713 268.264C193.233 267.641 194.861 267.326 196.504 267.338Z" fill="#EBEBF0"/>
<path d="M203.334 164.526H141.069V226.845H203.334V164.526Z" fill="white"/>
<path d="M203.334 410.381H141.069V472.699H203.334V410.381Z" fill="white"/>
<path d="M203.334 487.688H141.069V550.006H203.334V487.688Z" fill="white"/>
<path opacity="0.38" d="M271.904 331.234V342.935C271.904 344.576 271.582 346.2 270.955 347.715C270.327 349.23 269.408 350.607 268.249 351.767C267.091 352.927 265.715 353.847 264.201 354.475C262.687 355.102 261.064 355.425 259.425 355.425H196.372C194.733 355.425 193.111 355.102 191.596 354.475C190.082 353.847 188.707 352.927 187.548 351.767C186.389 350.607 185.47 349.23 184.843 347.715C184.216 346.2 183.893 344.576 183.893 342.935V331.234C194.389 324.27 206.263 319.651 218.703 317.693C215.093 315.668 212.258 312.499 210.644 308.685C209.03 304.871 208.73 300.628 209.79 296.624C210.85 292.62 213.21 289.083 216.499 286.569C219.788 284.055 223.819 282.707 227.957 282.737C232.095 282.767 236.106 284.174 239.358 286.736C242.61 289.298 244.918 292.869 245.92 296.888C246.921 300.907 246.559 305.145 244.89 308.935C243.22 312.725 240.339 315.852 236.7 317.824C255.353 320.848 271.904 331.234 271.904 331.234Z" fill="white"/>
<path d="M544.347 282.72H306.584C305.539 282.72 304.536 282.305 303.797 281.565C303.058 280.826 302.643 279.822 302.643 278.776C302.643 277.73 303.058 276.727 303.797 275.987C304.536 275.248 305.539 274.832 306.584 274.832H544.347C545.392 274.832 546.394 275.248 547.133 275.987C547.872 276.727 548.288 277.73 548.288 278.776C548.288 279.822 547.872 280.826 547.133 281.565C546.394 282.305 545.392 282.72 544.347 282.72Z" fill="#EBEBF0"/>
<path d="M226.585 103.523H449.373C450.348 103.523 451.284 103.911 451.974 104.601C452.664 105.292 453.051 106.228 453.051 107.204C453.051 108.181 452.664 109.117 451.974 109.807C451.284 110.498 450.348 110.885 449.373 110.885H226.585C226.102 110.885 225.624 110.79 225.178 110.605C224.731 110.42 224.326 110.149 223.984 109.807C223.643 109.465 223.372 109.06 223.187 108.613C223.002 108.166 222.907 107.688 222.907 107.204C222.907 106.721 223.002 106.242 223.187 105.795C223.372 105.349 223.643 104.943 223.984 104.601C224.326 104.259 224.731 103.988 225.178 103.803C225.624 103.618 226.102 103.523 226.585 103.523Z" fill="white"/>
<path d="M449.373 135.865H226.585C226.102 135.865 225.624 135.77 225.178 135.585C224.731 135.4 224.326 135.129 223.984 134.787C223.643 134.445 223.372 134.04 223.187 133.593C223.002 133.146 222.907 132.668 222.907 132.184C222.907 131.701 223.002 131.222 223.187 130.775C223.372 130.329 223.643 129.923 223.984 129.581C224.326 129.239 224.731 128.968 225.178 128.783C225.624 128.598 226.102 128.503 226.585 128.503H449.373C450.348 128.503 451.284 128.891 451.974 129.581C452.664 130.272 453.051 131.208 453.051 132.184C453.031 133.154 452.637 134.079 451.952 134.765C451.266 135.451 450.342 135.845 449.373 135.865Z" fill="white"/>
<path d="M449.373 186.088H226.585C226.102 186.088 225.624 185.993 225.178 185.808C224.731 185.623 224.326 185.352 223.984 185.01C223.643 184.668 223.372 184.262 223.187 183.816C223.002 183.369 222.907 182.89 222.907 182.407C222.907 181.923 223.002 181.445 223.187 180.998C223.372 180.551 223.643 180.146 223.984 179.804C224.326 179.462 224.731 179.191 225.178 179.006C225.624 178.821 226.102 178.726 226.585 178.726H449.373C450.348 178.726 451.284 179.113 451.974 179.804C452.664 180.494 453.051 181.431 453.051 182.407C453.031 183.377 452.637 184.302 451.952 184.988C451.266 185.674 450.342 186.068 449.373 186.088Z" fill="white"/>
<path d="M449.373 207.255H226.585C226.102 207.255 225.624 207.16 225.178 206.975C224.731 206.79 224.326 206.519 223.984 206.177C223.643 205.835 223.372 205.429 223.187 204.983C223.002 204.536 222.907 204.057 222.907 203.574C222.907 203.09 223.002 202.612 223.187 202.165C223.372 201.718 223.643 201.313 223.984 200.971C224.326 200.629 224.731 200.358 225.178 200.173C225.624 199.988 226.102 199.893 226.585 199.893H449.373C450.348 199.893 451.284 200.28 451.974 200.971C452.664 201.661 453.051 202.598 453.051 203.574C453.031 204.544 452.637 205.469 451.952 206.155C451.266 206.841 450.342 207.235 449.373 207.255Z" fill="white"/>
<path d="M449.373 434.704H226.585C226.102 434.704 225.624 434.609 225.178 434.424C224.731 434.239 224.326 433.967 223.984 433.626C223.643 433.284 223.372 432.878 223.187 432.431C223.002 431.985 222.907 431.506 222.907 431.023C222.907 430.539 223.002 430.06 223.187 429.614C223.372 429.167 223.643 428.761 223.984 428.42C224.326 428.078 224.731 427.807 225.178 427.622C225.624 427.437 226.102 427.341 226.585 427.341H449.373C450.348 427.341 451.284 427.729 451.974 428.42C452.664 429.11 453.051 430.046 453.051 431.023C453.031 431.993 452.637 432.917 451.952 433.603C451.266 434.289 450.342 434.684 449.373 434.704Z" fill="white"/>
<path d="M449.373 455.871H226.585C226.102 455.871 225.624 455.776 225.178 455.591C224.731 455.406 224.326 455.134 223.984 454.793C223.643 454.451 223.372 454.045 223.187 453.598C223.002 453.152 222.907 452.673 222.907 452.19C222.907 451.706 223.002 451.227 223.187 450.781C223.372 450.334 223.643 449.928 223.984 449.587C224.326 449.245 224.731 448.974 225.178 448.789C225.624 448.604 226.102 448.508 226.585 448.508H449.373C450.348 448.508 451.284 448.896 451.974 449.587C452.664 450.277 453.051 451.213 453.051 452.19C453.031 453.16 452.637 454.084 451.952 454.77C451.266 455.456 450.342 455.851 449.373 455.871Z" fill="white"/>
<path d="M449.373 512.01H226.585C226.102 512.01 225.624 511.915 225.178 511.73C224.731 511.545 224.326 511.274 223.984 510.932C223.643 510.59 223.372 510.184 223.187 509.737C223.002 509.291 222.907 508.812 222.907 508.329C222.907 507.845 223.002 507.367 223.187 506.92C223.372 506.473 223.643 506.067 223.984 505.726C224.326 505.384 224.731 505.113 225.178 504.928C225.624 504.743 226.102 504.647 226.585 504.647H449.373C449.856 504.647 450.334 504.743 450.781 504.928C451.227 505.113 451.632 505.384 451.974 505.726C452.315 506.067 452.586 506.473 452.771 506.92C452.956 507.367 453.051 507.845 453.051 508.329C453.031 509.299 452.637 510.223 451.952 510.909C451.266 511.595 450.342 511.99 449.373 512.01Z" fill="white"/>
<path d="M449.373 533.177H226.585C226.102 533.177 225.624 533.082 225.178 532.897C224.731 532.712 224.326 532.441 223.984 532.099C223.643 531.757 223.372 531.351 223.187 530.904C223.002 530.458 222.907 529.979 222.907 529.496C222.907 529.012 223.002 528.534 223.187 528.087C223.372 527.64 223.643 527.235 223.984 526.893C224.326 526.551 224.731 526.28 225.178 526.095C225.624 525.91 226.102 525.814 226.585 525.814H449.373C450.348 525.814 451.284 526.202 451.974 526.893C452.664 527.583 453.051 528.519 453.051 529.496C453.031 530.466 452.637 531.39 451.952 532.076C451.266 532.763 450.342 533.157 449.373 533.177Z" fill="white"/>
<path d="M544.347 308.095H306.584C305.539 308.095 304.536 307.679 303.797 306.94C303.058 306.2 302.643 305.197 302.643 304.151C302.643 303.105 303.058 302.101 303.797 301.362C304.536 300.622 305.539 300.207 306.584 300.207H544.347C545.392 300.207 546.394 300.622 547.133 301.362C547.872 302.101 548.288 303.105 548.288 304.151C548.288 305.197 547.872 306.2 547.133 306.94C546.394 307.679 545.392 308.095 544.347 308.095Z" fill="#EBEBF0"/>
<path d="M544.347 333.469H306.584C305.539 333.469 304.536 333.054 303.797 332.314C303.058 331.575 302.643 330.571 302.643 329.525C302.643 328.479 303.058 327.476 303.797 326.736C304.536 325.997 305.539 325.581 306.584 325.581H544.347C545.392 325.581 546.394 325.997 547.133 326.736C547.872 327.476 548.288 328.479 548.288 329.525C548.288 330.571 547.872 331.575 547.133 332.314C546.394 333.054 545.392 333.469 544.347 333.469Z" fill="#EBEBF0"/>
<path d="M499.159 505.436L484.183 614.559C483.547 619.166 484.043 623.86 485.628 628.232L512.426 707.116L528.058 702.251L516.235 623.762C515.995 622.139 516.084 620.485 516.498 618.898L536.859 548.691L545.66 706.985H560.11L572.589 550.663C576.793 524.631 569.042 505.305 569.042 505.305L499.159 505.436Z" fill="#3F3D56"/>
<path d="M575.873 409.198V484.137C575.873 493.341 574.428 500.703 565.233 500.703H501.129C491.934 500.703 491.671 493.341 491.54 484.137L491.014 433.126C491.014 433.126 477.221 457.843 466.187 455.476C455.153 453.11 422.444 407.883 422.444 407.883L438.733 394.21L466.187 421.819C466.187 421.819 470.653 411.827 476.959 389.345C483.264 366.863 504.282 366.732 504.282 366.732H559.979C580.077 366.732 575.873 409.198 575.873 409.198Z" fill="#929ECC"/>
<path d="M575.479 333.469C575.479 333.469 595.84 375.278 596.891 389.608C597.942 403.939 576.136 423.265 576.136 423.265L559.847 366.732H575.348V333.469H575.479Z" fill="#929ECC"/>
<path d="M575.479 333.469C575.479 333.469 595.84 375.278 596.891 389.608C597.942 403.939 576.136 423.265 576.136 423.265L559.847 366.732H575.348V333.469H575.479Z" fill="url(#paint3_linear)"/>
<path d="M576.267 423.266C576.267 423.266 589.535 386.716 588.09 378.433C586.645 370.15 575.479 343.593 575.479 343.593V366.864L555.906 367.258L576.267 423.266Z" fill="#929ECC"/>
<path d="M569.043 500.309H499.159V505.436H569.043V500.309Z" fill="#929ECC"/>
<path d="M569.043 500.309H499.159V505.436H569.043V500.309Z" fill="url(#paint4_linear)"/>
<path d="M543.033 315.852H522.935V367.127H543.033V315.852Z" fill="url(#paint5_linear)"/>
<path d="M543.033 310.199V367.127H532.393V363.708C532.393 361.686 531.59 359.746 530.161 358.316C528.733 356.886 526.795 356.083 524.774 356.083H524.117C521.606 356.095 519.118 355.611 516.794 354.659C514.47 353.707 512.357 352.305 510.575 350.534C508.794 348.763 507.379 346.658 506.411 344.339C505.444 342.02 504.944 339.532 504.938 337.019V310.33H543.033V310.199Z" fill="url(#paint6_linear)"/>
<path d="M510.061 292.844C514.265 290.478 519.388 290.215 524.38 290.083L534.757 289.82C537.081 289.711 539.41 289.799 541.719 290.083C543.938 290.45 546.063 291.252 547.971 292.442C549.88 293.633 551.535 295.189 552.841 297.021C554.147 298.854 555.078 300.926 555.582 303.12C556.085 305.314 556.151 307.585 555.775 309.804C555.546 311.02 555.194 312.21 554.724 313.354C554.324 314.184 554.058 315.071 553.936 315.984C554.159 317.421 554.649 318.803 555.381 320.059C556.826 324.003 554.461 328.211 551.834 331.366C549.207 334.521 546.054 337.808 545.66 342.015C545.529 343.33 545.66 344.908 544.741 345.959C544.175 346.476 543.449 346.783 542.685 346.831C541.921 346.879 541.163 346.664 540.537 346.222C539.335 345.309 538.349 344.142 537.647 342.804C537.779 344.776 535.02 345.828 533.312 344.908C532.51 344.352 531.836 343.63 531.337 342.791C530.839 341.951 530.527 341.014 530.422 340.043C530.195 338.114 529.616 336.242 528.715 334.521C527.795 333.207 526.35 332.286 525.956 330.709C525.168 328.079 527.795 325.187 526.744 322.557C525.956 320.454 522.935 319.796 520.833 320.717C518.821 321.833 517.143 323.467 515.973 325.45C517.943 322.82 516.367 318.35 514.265 316.247C510.981 312.697 506.121 315.721 503.362 313.223C498.239 308.227 505.464 295.474 510.061 292.844Z" fill="#3F3D56"/>
<path opacity="0.25" d="M538.567 366.995C538.567 366.995 530.685 377.25 519.914 377.25C509.142 377.25 477.484 408.278 475.382 417.612C473.28 426.947 466.187 421.819 466.187 421.819C466.187 421.819 470.653 411.827 476.959 389.345C483.264 366.863 504.282 366.732 504.282 366.732H532.655L538.567 366.995Z" fill="white"/>
<path d="M527.926 700.937L533.444 714.479L511.244 724.997L490.62 726.443C490.62 726.443 487.073 712.901 496.663 711.718C502.265 711.077 507.606 708.994 512.163 705.67L527.926 700.937Z" fill="#222A72"/>
<path d="M545.529 706.985C542.741 708.155 540.319 710.053 538.516 712.482C536.713 714.911 535.597 717.78 535.283 720.789L534.757 726.443H559.979V706.985H545.529Z" fill="#222A72"/>
<path d="M438.601 394.341L427.961 381.194C427.961 381.194 424.283 367.126 422.313 375.804C421.13 380.668 417.978 389.477 417.978 389.477H401.689C401.689 389.477 413.117 401.572 417.978 403.807C420.196 404.783 422.539 405.447 424.94 405.779L438.601 394.341Z" fill="url(#paint7_linear)"/>
<defs>
<linearGradient id="paint0_linear" x1="-123.649" y1="818.211" x2="440.062" y2="39.3485" gradientUnits="userSpaceOnUse">
<stop stop-opacity="0"/>
<stop offset="0.85" stop-opacity="0.51"/>
<stop offset="0.99"/>
</linearGradient>
<linearGradient id="paint1_linear" x1="20118.6" y1="1333.83" x2="20118.2" y2="1490.05" gradientUnits="userSpaceOnUse">
<stop stop-opacity="0"/>
<stop offset="0.85" stop-opacity="0.51"/>
<stop offset="0.99"/>
</linearGradient>
<linearGradient id="paint2_linear" x1="129350" y1="54279.6" x2="129311" y2="79517.9" gradientUnits="userSpaceOnUse">
<stop stop-opacity="0"/>
<stop offset="0.85" stop-opacity="0.51"/>
<stop offset="0.99"/>
</linearGradient>
<linearGradient id="paint3_linear" x1="21745.8" y1="-2622.47" x2="28589.2" y2="-6953.59" gradientUnits="userSpaceOnUse">
<stop stop-opacity="0"/>
<stop offset="0.85" stop-opacity="0.51"/>
<stop offset="0.99"/>
</linearGradient>
<linearGradient id="paint4_linear" x1="31293.5" y1="2607.76" x2="31295.5" y2="2733.69" gradientUnits="userSpaceOnUse">
<stop stop-opacity="0"/>
<stop offset="0.85" stop-opacity="0.51"/>
<stop offset="0.99"/>
</linearGradient>
<linearGradient id="paint5_linear" x1="526.745" y1="341.608" x2="559.834" y2="341.004" gradientUnits="userSpaceOnUse">
<stop stop-color="#ECC4D7"/>
<stop offset="0.42" stop-color="#EFD4D1"/>
<stop offset="1" stop-color="#F2EAC9"/>
</linearGradient>
<linearGradient id="paint6_linear" x1="22671.9" y1="-7573.03" x2="22446.9" y2="-7493.28" gradientUnits="userSpaceOnUse">
<stop stop-color="#ECC4D7"/>
<stop offset="0.42" stop-color="#EFD4D1"/>
<stop offset="1" stop-color="#F2EAC9"/>
</linearGradient>
<linearGradient id="paint7_linear" x1="18306.6" y1="-3034.88" x2="19345.3" y2="-3034.88" gradientUnits="userSpaceOnUse">
<stop stop-color="#ECC4D7"/>
<stop offset="0.42" stop-color="#EFD4D1"/>
<stop offset="1" stop-color="#F2EAC9"/>
</linearGradient>
</defs>
</svg>
